<?xml version="1.0" standalone="no"?>
<!DOCTYPE svg PUBLIC "-//W3C//DTD SVG 1.1//EN" "http://www.w3.org/Graphics/SVG/1.1/DTD/svg11.dtd" >
<svg xmlns="http://www.w3.org/2000/svg" xmlns:xlink="http://www.w3.org/1999/xlink" version="1.1" viewBox="-10 0 266 256">
   <path fill="currentColor"
d="M71 28q5 3 9 5q2 2 1 3q-1 4 -3 18q-1 14 -1 29q12 -7 21 -7q2 1 2 2q0 3 -2 3q-6 2 -21 10q-2 22 -1 59q16 -15 38 -41q6 -5 2 2q-36 48 -69 67q-2 1 -4 3q-1 1 -2 1q-1 2 -3 1q-1 0 -2 -2q-1 -1 -1 -3q-1 -1 1 -1q1 2 9 -3q16 -11 25 -20v-34q1 -20 1 -26q-11 7 -22 11
q-7 5 -20 1q-4 0 0 -1q7 -1 15 -4q15 -6 27 -15q0 -5 1 -14q0 -9 1 -15q0 -13 -1 -16q0 -5 -2 -11q-1 -2 1 -2zM213 85q4 6 7 7q4 5 -1 7t-5 6q-17 82 -29 96q-7 7 -8 12q-3 5 -6 1q-4 -6 -13 -9q-10 -3 -17 -11q-5 -4 2 -2q12 8 26 12q5 0 9 -1q23 -28 28 -106
q0 -18 -14 -25q-18 -3 -44 11q-7 4 -17 2q-3 1 0 -1q22 -11 44 -15q24 -5 38 16zM143 16q4 5 7 10q1 3 0 6q-22 55 -43 79q-3 3 -1 -2q17 -22 35 -72q3 -13 0 -21q0 -1 2 0zM177 132q-11 13 -26 26q-3 2 -2 2q-10 8 -14 13q-9 5 -13 -5q-2 -2 2 -1q2 3 10 -3q26 -18 41 -34
q5 -4 2 2zM162 122q2 2 1 4q-2 2 -4 1h-10h-3q-1 -1 1 -3q6 0 -15 -8q-5 -1 1 -2q18 1 29 8z" />
</svg>
