<?xml version="1.0" encoding="UTF-8" standalone="no"?>
<svg
   version="1.1"
   viewBox="-10 0 271 256"
   id="svg4"
   xmlns="http://www.w3.org/2000/svg"
   xmlns:svg="http://www.w3.org/2000/svg">
  <defs
     id="defs8" />
  <path
     fill="currentColor"
     d="M138 9q-1 -2 0 -3q1 0 3 1q11 14 7 17q-3 10 -7 32q45 -23 57 -2q2 8 -1 8q-7 0 -13 5q-27 19 -40 22q-3 1 -3 0t3 -3q27 -17 40 -29q3 -3 2 -5t-5 -3q-20 -4 -42 13q-24 74 -43 121q-3 4 -4 4q-1 -1 1 -5q20 -51 36 -112q-16 11 -23 21q-6 8 -7 15q-1 8 -6 5 q-12 -8 -5 -22q5 -9 7 -18q0 -2 1 -3q2 0 3 2q1 6 1 14q17 -13 31 -22q4 -20 6 -31q1 -12 1 -22zM38 41q-3 -2 1 -1q12 5 24 5q3 1 4 3q-1 6 -4 5q-14 -3 -25 -12zM74 125q2 -4 3 -4q1 1 1 5q-14 56 -27 86q-3 5 -6 2q-8 -7 -8 -13q0 -2 1 -2t2 2q0 3 2 3t3 -2q9 -22 29 -77 zM130 126q7 6 5 8q-9 16 -6 39q3 15 20 22q47 9 84 -4q6 -1 2 -8q-8 -15 -12 -27q-1 -2 0 -3t3 1q9 9 14 19q2 4 5 9q2 3 3 3q3 4 3 5q0 2 -4 3q-33 8 -54 9q-20 1 -43 -5q-18 -3 -25 -23q-5 -13 2 -47q-1 -2 0 -2t3 1zM12 99q-3 -2 0 -1q15 2 26 -2q4 -1 4 3q1 7 -2 6 q-11 1 -28 -6z"
     id="path2"
     style="fill:none;stroke:#000000;stroke-opacity:1" />
  <path
     style="fill:none;stroke:#000000;stroke-width:1px;stroke-linecap:butt;stroke-linejoin:miter;stroke-opacity:1"
     d="M 36.802454,39.892025 67.585276,52.142331"
     id="path915" />
  <path
     style="fill:none;stroke:#000000;stroke-width:1px;stroke-linecap:butt;stroke-linejoin:miter;stroke-opacity:1"
     d="m 12.615951,98.630675 32.039264,5.025765"
     id="path917" />
  <path
     style="fill:none;stroke:#000000;stroke-width:1px;stroke-linecap:butt;stroke-linejoin:miter;stroke-opacity:1"
     d="m 43.084663,211.71043 35.180368,-93.2908"
     id="path919" />
  <path
     style="fill:none;stroke:#000000;stroke-width:1px;stroke-linecap:butt;stroke-linejoin:miter;stroke-opacity:1"
     d="M 97.42577,67.533742 88.002454,110.88098"
     id="path921" />
  <path
     style="fill:none;stroke:#000000;stroke-width:1px;stroke-linecap:butt;stroke-linejoin:miter;stroke-opacity:1"
     d="m 92.4,92.976687 46.48834,-34.238037 26.38528,-11.307975 19.16074,-1.256442 8.48098,9.737423 -54.027,35.180369"
     id="path923" />
  <path
     style="fill:none;stroke:#000000;stroke-width:1px;stroke-linecap:butt;stroke-linejoin:miter;stroke-opacity:1"
     d="M 144.22822,12.564417 120.98405,108.99632 90.51534,190.03681"
     id="path925" />
  <path
     style="fill:none;stroke:#000000;stroke-width:1px;stroke-linecap:butt;stroke-linejoin:miter;stroke-opacity:1"
     d="m 131.97791,128.15706 -6.59631,29.21227 2.19877,19.78895 10.05153,13.50675 21.98773,7.53865 28.26994,2.51288 19.78896,-2.19877 23.87239,-4.39754 11.9362,-5.02577 -21.98773,-39.89203"
     id="path927" />
</svg>
