<?xml version="1.0" encoding="UTF-8" standalone="no"?>
<svg
   version="1.1"
   viewBox="-10 0 266 256"
   id="svg4"
   xmlns="http://www.w3.org/2000/svg"
   xmlns:svg="http://www.w3.org/2000/svg">
  <defs
     id="defs8" />
  <path
     fill="currentColor"
     d="M71 28q5 3 9 5q2 2 1 3q-1 4 -3 18q-1 14 -1 29q12 -7 21 -7q2 1 2 2q0 3 -2 3q-6 2 -21 10q-2 22 -1 59q16 -15 38 -41q6 -5 2 2q-36 48 -69 67q-2 1 -4 3q-1 1 -2 1q-1 2 -3 1q-1 0 -2 -2q-1 -1 -1 -3q-1 -1 1 -1q1 2 9 -3q16 -11 25 -20v-34q1 -20 1 -26q-11 7 -22 11 q-7 5 -20 1q-4 0 0 -1q7 -1 15 -4q15 -6 27 -15q0 -5 1 -14q0 -9 1 -15q0 -13 -1 -16q0 -5 -2 -11q-1 -2 1 -2zM213 85q4 6 7 7q4 5 -1 7t-5 6q-17 82 -29 96q-7 7 -8 12q-3 5 -6 1q-4 -6 -13 -9q-10 -3 -17 -11q-5 -4 2 -2q12 8 26 12q5 0 9 -1q23 -28 28 -106 q0 -18 -14 -25q-18 -3 -44 11q-7 4 -17 2q-3 1 0 -1q22 -11 44 -15q24 -5 38 16zM143 16q4 5 7 10q1 3 0 6q-22 55 -43 79q-3 3 -1 -2q17 -22 35 -72q3 -13 0 -21q0 -1 2 0zM177 132q-11 13 -26 26q-3 2 -2 2q-10 8 -14 13q-9 5 -13 -5q-2 -2 2 -1q2 3 10 -3q26 -18 41 -34 q5 -4 2 2zM162 122q2 2 1 4q-2 2 -4 1h-10h-3q-1 -1 1 -3q6 0 -15 -8q-5 -1 1 -2q18 1 29 8z"
     id="path2"
     style="fill:none;stroke:#000000;stroke-opacity:1" />
  <path
     style="fill:none;stroke:#000000;stroke-width:1px;stroke-linecap:butt;stroke-linejoin:miter;stroke-opacity:1"
     d="m 33.66135,106.48344 c 12.250306,-3.14111 68.79018,-31.725158 68.79018,-31.725158"
     id="path894" />
  <path
     style="fill:none;stroke:#000000;stroke-width:1px;stroke-linecap:butt;stroke-linejoin:miter;stroke-opacity:1"
     d="m 74.495706,33.295706 c 0,9.737423 -1.884663,127.528834 -1.884663,127.528834"
     id="path896" />
  <path
     style="fill:none;stroke:#000000;stroke-width:1px;stroke-linecap:butt;stroke-linejoin:miter;stroke-opacity:1"
     d="m 36.802454,180.92761 c 6.910429,-2.19878 53.398776,-40.83436 53.398776,-40.83436 l 27.95583,-33.60981"
     id="path898" />
  <path
     style="fill:none;stroke:#000000;stroke-width:1px;stroke-linecap:butt;stroke-linejoin:miter;stroke-opacity:1"
     d="M 146.7411,24.500613 102.13742,115.90675"
     id="path900" />
  <path
     style="fill:none;stroke:#000000;stroke-width:1px;stroke-linecap:butt;stroke-linejoin:miter;stroke-opacity:1"
     d="m 133.86258,84.809816 44.60368,-15.077301 10.36564,-0.628221 12.87853,6.282209 9.42331,18.532515 -7.22454,46.802452 -16.01963,52.77055 -14.76319,17.9043"
     id="path902" />
  <path
     style="fill:none;stroke:#000000;stroke-width:1px;stroke-linecap:butt;stroke-linejoin:miter;stroke-opacity:1"
     d="m 132.92025,114.96442 33.2957,11.93619"
     id="path904" />
  <path
     style="fill:none;stroke:#000000;stroke-width:1px;stroke-linecap:butt;stroke-linejoin:miter;stroke-opacity:1"
     d="m 125.69571,172.76074 c 33.2957,-16.64786 55.91165,-48.37301 55.91165,-48.37301"
     id="path906" />
</svg>
