<?xml version="1.0" standalone="no"?>
<!DOCTYPE svg PUBLIC "-//W3C//DTD SVG 1.1//EN" "http://www.w3.org/Graphics/SVG/1.1/DTD/svg11.dtd" >
<svg xmlns="http://www.w3.org/2000/svg" xmlns:xlink="http://www.w3.org/1999/xlink" version="1.1" viewBox="-10 0 271 256">
   <path fill="currentColor"
d="M138 9q-1 -2 0 -3q1 0 3 1q11 14 7 17q-3 10 -7 32q45 -23 57 -2q2 8 -1 8q-7 0 -13 5q-27 19 -40 22q-3 1 -3 0t3 -3q27 -17 40 -29q3 -3 2 -5t-5 -3q-20 -4 -42 13q-24 74 -43 121q-3 4 -4 4q-1 -1 1 -5q20 -51 36 -112q-16 11 -23 21q-6 8 -7 15q-1 8 -6 5
q-12 -8 -5 -22q5 -9 7 -18q0 -2 1 -3q2 0 3 2q1 6 1 14q17 -13 31 -22q4 -20 6 -31q1 -12 1 -22zM38 41q-3 -2 1 -1q12 5 24 5q3 1 4 3q-1 6 -4 5q-14 -3 -25 -12zM74 125q2 -4 3 -4q1 1 1 5q-14 56 -27 86q-3 5 -6 2q-8 -7 -8 -13q0 -2 1 -2t2 2q0 3 2 3t3 -2q9 -22 29 -77
zM130 126q7 6 5 8q-9 16 -6 39q3 15 20 22q47 9 84 -4q6 -1 2 -8q-8 -15 -12 -27q-1 -2 0 -3t3 1q9 9 14 19q2 4 5 9q2 3 3 3q3 4 3 5q0 2 -4 3q-33 8 -54 9q-20 1 -43 -5q-18 -3 -25 -23q-5 -13 2 -47q-1 -2 0 -2t3 1zM12 99q-3 -2 0 -1q15 2 26 -2q4 -1 4 3q1 7 -2 6
q-11 1 -28 -6z" />
</svg>
